<svg xmlns="http://www.w3.org/2000/svg" aria-hidden="true" style="position:absolute;width:0;height:0;overflow:hidden"><defs><symbol id="icon-Boy" viewBox="0 0 32 32"><path fill="#5736a3" d="M30.447 14.291c0 7.893-6.398 14.291-14.291 14.291S1.865 22.184 1.865 14.291C1.865 6.398 8.263 0 16.156 0s14.291 6.398 14.291 14.291z" style="fill:var(--color1, #5736a3)"/><path fill="#ebd8ff" d="M16.155 25.407c-6.139 0-11.115-4.977-11.115-11.115S10.017 3.177 16.155 3.177c6.139 0 11.115 4.977 11.115 11.115s-4.977 11.115-11.115 11.115zm0 3.176c7.893 0 14.291-6.398 14.291-14.291S24.048.001 16.155.001C8.262.001 1.864 6.399 1.864 14.292s6.398 14.291 14.291 14.291z" style="fill:var(--color2, #ebd8ff)"/><path d="M27.34 14.291c0 6.177-5.007 11.184-11.184 11.184S4.972 20.468 4.972 14.291 9.979 3.107 16.156 3.107 27.34 8.114 27.34 14.291z" style="fill:var(--color3, #000)"/></symbol><symbol id="icon-heart" viewBox="0 0 31 32"><path d="m9.043-3.478 25.445 14.36-14.702 26.051-25.445-14.36L9.043-3.478z" opacity=".35" style="fill:var(--color3, #000)"/><path fill="#5648ff" d="m9.043-3.478 25.445 14.36-14.702 26.051-25.445-14.36L9.043-3.478z" opacity=".35" style="fill:var(--color4, #5648ff)"/></symbol><symbol id="icon-Logo" viewBox="0 0 108 32"><path fill="#fff" d="M0 0h47.744l12.564 16-12.564 16H0V0z" opacity=".3" style="fill:var(--color5, #fff)"/><path fill="#010101" d="m21.31 14.187.221.181a.409.409 0 0 0 .109-.111l.02-.027c.261-.314.521-.629.78-.945.521-.629 1.04-1.259 1.559-1.89.103-.126.1-.184-.019-.287a11.328 11.328 0 0 0-.285-.242c-.824-.682-1.73-1.215-2.756-1.523a9.64 9.64 0 0 0-2.098-.367c-.93-.063-1.851-.032-2.763.181-3.196.744-5.58 3.419-5.86 6.847a8.186 8.186 0 0 0 .231 2.74c.533 2.035 1.689 3.594 3.526 4.621 1.001.559 2.085.855 3.224.947.965.078 1.92.019 2.863-.196 1.594-.363 3.004-1.097 4.257-2.146a.35.35 0 0 0 .141-.3c-.004-1.632-.004-3.265-.003-4.898v-1.225a.685.685 0 0 0-.003-.064c-.003-.048-.007-.095.006-.139.015-.051-.012-.079-.038-.108-.022-.023-.043-.046-.04-.08.007-.056-.031-.065-.075-.065h-6.732l-.039.001a.691.691 0 0 1-.079-.001c-.068-.007-.09.027-.085.09.002.026.001.053.001.08l-.001.04v3.224c0 .119-.009.171.013.194s.073.016.192.016h2.663c.117 0 .168-.006.189.016s.013.075.014.196V19.652c0 .32 0 .323-.287.462-.84.406-1.727.522-2.643.406-1.018-.128-1.832-.614-2.429-1.455-.388-.548-.601-1.165-.68-1.83-.1-.849.002-1.667.383-2.438.46-.926 1.155-1.592 2.154-1.897.701-.215 1.41-.159 2.112-.003.636.14 1.191.454 1.701.848.187.143.369.292.554.444zm18.84-3.094c-1.569-1.443-3.438-2.131-5.37-2.146-.892.002-1.559.075-2.266.261-2.052.541-3.659 1.701-4.725 3.553-1.096 1.9-1.318 3.939-.706 6.035.685 2.344 2.146 4.05 4.405 5 1.735.728 3.533.826 5.346.345 2.107-.558 3.721-1.791 4.78-3.715.892-1.622 1.131-3.362.799-5.179-.298-1.633-1.045-3.031-2.263-4.154zm-8.664 3.664c.684-1.274 1.776-1.885 2.836-1.909 2.151-.005 3.557 1.218 3.94 2.914.232 1.022.129 2.015-.368 2.943-.585 1.09-1.498 1.725-2.726 1.866-1.187.138-2.224-.201-3.07-1.064-.543-.553-.87-1.227-1.009-1.987-.176-.964-.068-1.897.397-2.762z" opacity=".3" style="fill:var(--color6, #010101)"/><path fill="#fff" d="M60.308 0h48v32h-48V0z" opacity=".3" style="fill:var(--color5, #fff)"/><path fill="#010101" d="M90.508 8.949h6.021c.232 0 .207-.027.207.21v3.446c-.002.166-.002.166-.168.166h-3.85c-.229 0-.202-.019-.202.198v10.677c0 .222 0 .222-.226.222H88.66c-.205 0-.182.014-.182-.183V13.008c0-.239 0-.239-.244-.239h-3.783c-.198 0-.185.019-.185-.181V9.125c0-.029.002-.056 0-.085-.005-.063.019-.096.087-.092.046.002.09 0 .136 0 2.005.002 4.011.002 6.018.002zM76.424 16.398V9.15c0-.229-.027-.201.195-.201 1.215-.002 2.431 0 3.645 0 .029 0 .058.003.085 0 .092-.01.12.034.112.119-.003.034 0 .068 0 .102v14.48c0 .246.036.218-.214.218-1.204.002-2.409 0-3.611 0-.034 0-.068-.003-.102 0-.095.014-.117-.036-.11-.119.003-.044 0-.09 0-.137v-7.214z" opacity=".3" style="fill:var(--color6, #010101)"/></symbol><symbol id="icon-rectangle" viewBox="0 0 37 32"><path d="M1.333 14.667 17.449-1.272l19.22 19.434-16.116 15.939-19.22-19.434z" opacity=".35" style="fill:var(--color3, #000)"/><path fill="#5648ff" d="M1.333 14.667 17.449-1.272l19.22 19.434-16.116 15.939-19.22-19.434z" opacity=".35" style="fill:var(--color4, #5648ff)"/></symbol><symbol id="icon-rectangle2" viewBox="0 0 27 32"><path d="M26.553 0H0v32h26.553V0z" opacity=".35" style="fill:var(--color3, #000)"/><path fill="#5648ff" d="M26.553 0H0v32h26.553V0z" opacity=".35" style="fill:var(--color4, #5648ff)"/></symbol><symbol id="icon-RectangleImg" viewBox="0 0 908 32"><path fill="#ebd8ff" d="M0 0h908v16H0V0z" style="fill:var(--color2, #ebd8ff)"/></symbol></defs></svg>